<?xml version="1.0" encoding="utf-8"?>
<!-- Generator: Adobe Illustrator 25.3.1, SVG Export Plug-In . SVG Version: 6.00 Build 0)  -->
<svg version="1.1" id="Layer_1" xmlns="http://www.w3.org/2000/svg" xmlns:xlink="http://www.w3.org/1999/xlink" x="0px" y="0px"
	 viewBox="0 0 1127.8 651.4" style="enable-background:new 0 0 1127.8 651.4;" xml:space="preserve">
<style type="text/css">
	.st0{fill:url(#SVGID_1_);}
	.st1{fill:#FDB912;}
</style>
<g>
	
		<linearGradient id="SVGID_1_" gradientUnits="userSpaceOnUse" x1="522.3543" y1="671.1545" x2="632.0741" y2="189.8857" gradientTransform="matrix(1 0 0 -1 0 650.8076)">
		<stop  offset="0" style="stop-color:#FECE08"/>
		<stop  offset="1" style="stop-color:#EBB502"/>
	</linearGradient>
	<path class="st0" d="M789.6,170.2c-1.3-10-3.4-19.8-6.1-29.4c-3.1-10.8-7.1-21.3-12.1-31.4c-6.6-13.6-14.4-26.5-24.2-38.1
		l-16.8-18.5c-0.4-0.5-0.9-1-1.4-1.4c-17.2-15.7-36.3-28.3-58.2-36.8c-7-2.7-14.1-5.3-21.4-7c-7-1.7-14-2.9-21.1-4
		c-8.7-1.4-17.5-2.6-26.3-3c-17.3-0.8-34.7-1.1-52,1c-6.7,0.8-13.6,1.4-20.2,2.7c-8.8,1.7-17.5,3.8-26.2,6c-9.1,2.3-18,5.1-26.8,8.2
		c-11.1,3.9-22,8.7-32.4,14.2c-11.8,6.1-23.2,13.1-34.1,20.8c-25.1,17.8-46.4,39.3-63,65.3c-5.1,7.9-9.4,16.2-11,25.7
		c-1.1,6.7,2.7,13,9,14c3.7,0.6,7.5,0.6,11.2-0.2c10.6-2.3,20.2-6.9,29.1-13c7.1-4.8,14.1-9.7,21.2-14.5c5.7-3.9,12-7.2,18-10.6
		c10.8-6.1,21.6-12.3,33-17.1c11.2-4.7,22.5-9.1,34.1-13c9.8-3.2,19.7-5.8,29.7-7.8c12-2.4,24.2-3.8,36.5-4.1c24.4-0.5,48,2.7,70,14
		c8.9,4.6,16.9,10.3,23.7,17.7c7.5,8.1,12.9,17.5,14.5,28.3c1.9,12,0.6,24.1-4.6,35.5c-5.4,11.8-12.6,22.1-23.2,29.8
		c-4.9,3.6-10.5,6.4-15,10.6c-3.6,3.3-3.7,5.7-0.2,9.1c4.2,4,9.2,6.8,14,9.9c8.6,5.5,12.9,14.1,16.5,23.1c1.5,3.8,2,8.1,2.6,12.3
		c1.2,7.9,0.6,15.7-1.1,23.5c-1.8,8.1-5.2,15.6-9.7,22.6c-0.2,0.3-0.4,0.6-0.5,0.9c-0.6,1-3.5,5.1-3.9,5.7c-0.4,0.5-4.4,4.5-5.2,5.3
		c-2.9,2.8-5.8,5.3-7.5,6.7c-19,15.6-41.3,22.3-65.5,23.7c-9.3,0.5-18.5,0-27.8-0.9c-7.9-0.8-15.6-2.2-23.2-4.1
		c-10.3-2.5-20.4-5.7-29.9-10.3c-7.4-3.6-14.7-7.3-17.6-16c-1.7-5.2-3.1-10.6-3.9-16c-2.1-13.6-3.2-27.2-3.6-40.9
		c-0.6-24.3-0.8-48.6-0.3-72.9c0.1-6.5,1.3-12.7,3.7-18.6c4.1-9.8,16.4-17.5,27-16.5c8.7,0.8,16.7,3.3,23.7,8.7
		c12.8,10,19,23,17.2,39.5c-0.4,3.9-0.7,7.8-1.1,11.7c-1.3,11.1-2.4,22.1-3.5,33.2c-1,10.6-2.2,21.2-1,31.9c0.6,5.8,2.8,11,8.6,13
		c9.7,3.4,19.8,4.6,29.9,2c11.6-2.9,19.8-12.7,19.8-24.6c0-10.5-4.5-19-13.2-25.2c-3.5-2.5-7.4-4.3-10.7-7.1
		c-5.7-4.7-9.9-10.1-8.8-18.1c0.5-3.8,2.1-7.1,3.9-10.4c5.7-10.4,14.1-18.6,22.6-26.6c5.5-5.3,11-10.4,14.7-17.2
		c7.5-13.6,5-26.4-8.1-35c-7.4-4.9-15.8-7-24.5-8.5c-13.2-2.2-26.4-1.3-39.5,0.6c-11,1.6-21.8,4.2-32.4,7.8
		c-8.3,2.8-16.2,6.2-23.8,10.3c-10.8,5.8-20.9,12.7-30.2,20.6c-6.6,5.7-12.8,11.8-18.4,18.5c-6.4,7.8-12.3,16-17.3,24.8
		c-5.5,9.6-9.8,19.7-13,30.2s-5.1,21.4-5.9,32.4c-1,14.3-0.1,28.4,2.5,42.4c1.5,8.3,4,16.4,6.5,24.5c4.2,13.9,10.4,26.8,18.5,38.6
		c8.3,12.2,19.1,22.1,31.3,30.4c17.3,11.8,36.3,19.8,56.6,25.1c12.7,3.3,25.6,5.6,38.7,6.6c22.7,1.7,45.4,0.7,67.8-3.5
		c13.5-2.5,26.8-6.1,39.7-10.8c14.1-5.1,27.6-11.5,40.5-19.1c18.8-11,35.5-24.5,50.3-40.5c20.1-21.8,33.9-47.2,44.7-74.6
		c6.3-15.9,11.1-32.2,14.2-49.1c2.1-11.4,3.3-22.8,4-34.3C792.3,196.1,791.2,183.1,789.6,170.2z"/>
	<g>
		<g>
			<path class="st1" d="M107.8,628.9c-2.3,4.5-5.6,8.2-9.9,11.2c-4.3,3-9.5,5.2-15.5,6.7S69.6,649,62.3,649H0V517.8h60.8
				c13.5,0,24,3.1,31.7,9.2s11.5,14.4,11.5,24.7v0.4c0,3.7-0.5,7.1-1.4,9.9c-0.9,2.9-2.2,5.5-3.7,7.8c-1.6,2.3-3.4,4.3-5.4,6.1
				c-2.1,1.8-4.3,3.3-6.6,4.5c7.6,2.9,13.6,6.8,17.9,11.7c4.4,4.9,6.5,11.8,6.5,20.5v0.4C111.3,619.2,110.2,624.4,107.8,628.9z
				 M75.5,556.8c0-4.4-1.6-7.7-4.9-10c-3.3-2.3-7.9-3.5-14.1-3.5H28V571h26.6c6.4,0,11.4-1.1,15.2-3.3c3.7-2.2,5.6-5.7,5.6-10.6
				v-0.3H75.5z M82.8,609.2c0-4.4-1.7-7.8-5.1-10.4c-3.4-2.6-8.8-3.8-16.3-3.8H28v28.9h34.3c6.4,0,11.4-1.2,15-3.5s5.4-5.9,5.4-10.8
				v-0.4H82.8z"/>
			<path class="st1" d="M136.6,649.2V518h28.9v131.2H136.6z"/>
			<path class="st1" d="M198.3,649.2V518h98.8v25.7h-70.3v26.6h61.9V596h-61.9v27.6H298v25.7h-99.7V649.2z"/>
			<path class="st1" d="M415.9,649.2l-63.6-83.4v83.4h-28.5V518h26.6l61.5,80.8V518h28.5v131.2H415.9z"/>
			<path class="st1" d="M539.3,650.1h-25.5l-53.1-132.2h31.9l34.3,92.4l34.3-92.4h31.1L539.3,650.1z"/>
			<path class="st1" d="M612.6,649.2V518h98.8v25.7h-70.3v26.6H703V596h-61.9v27.6h71.2v25.7h-99.7V649.2z"/>
			<path class="st1" d="M830.3,649.2l-63.6-83.4v83.4h-28.5V518h26.6l61.5,80.8V518h28.5v131.2H830.3z"/>
			<path class="st1" d="M994.6,618.1c-2.7,7.4-6.5,13.5-11.5,18.5c-5,4.9-11.1,8.6-18.2,11.1c-7.1,2.4-15.1,3.7-23.8,3.7
				c-17.6,0-31.5-4.9-41.6-14.6s-15.2-24.3-15.2-43.7v-75h28.9v74.2c0,10.8,2.5,18.8,7.5,24.3c5,5.4,11.9,8.2,20.8,8.2
				s15.8-2.6,20.8-7.9c5-5.2,7.5-13.1,7.5-23.6v-75.2h28.9v74.1C998.6,602,997.3,610.7,994.6,618.1z"/>
			<path class="st1" d="M1028.1,649.2V518h98.8v25.7h-70.3v26.6h61.9V596h-61.9v27.6h71.2v25.7h-99.7V649.2z"/>
		</g>
	</g>
</g>
</svg>
